<svg width="49" height="54" viewBox="0 0 49 54" fill="none" xmlns="http://www.w3.org/2000/svg">
<path d="M46.0854 12.4146L24.5 0.416672L2.91458 12.4146L16.6458 20.025C18.6229 17.9667 21.4125 16.6667 24.5 16.6667C27.5875 16.6667 30.3771 17.9667 32.3542 20.025L46.0854 12.4146ZM19.0833 27.5C19.0833 24.5208 21.5208 22.0833 24.5 22.0833C27.4792 22.0833 29.9167 24.5208 29.9167 27.5C29.9167 30.4792 27.4792 32.9167 24.5 32.9167C21.5208 32.9167 19.0833 30.4792 19.0833 27.5ZM21.7917 53.0667L0.125 41.0417V17.0458L14.0188 24.7646C13.775 25.6313 13.6667 26.5521 13.6667 27.5C13.6667 32.5375 17.1062 36.7896 21.7917 37.9813V53.0667ZM27.2083 53.0667V37.9813C31.8937 36.7896 35.3333 32.5375 35.3333 27.5C35.3333 26.5521 35.225 25.6313 34.9812 24.7646L48.875 17.0458V41.0417L27.2083 53.0667Z" fill="#443B3B"/>
</svg>
